<?xml version="1.0" encoding="UTF-8"?><svg id="_レイヤー_1" xmlns="http://www.w3.org/2000/svg" viewBox="0 0 968.07 984.11"><path d="M381.86,308.73l-42.79-28.78-19.6-13.36-59.85,40.78c-.77,1.01-6.35,1.27-5.9-.33l20.2-72.76-59.22-47.89c-.5-.4-1.34-1.55-1.67-2.03-3.8-5.49,28.31-4.52,32.98-4.64l33.11-.82c4.33-.11,8.27-.42,12.61-1.33l24.76-68.26c.35-.96,2.22-2.51,3.16-2.54s2.64,1.55,3.04,2.61l25.86,68.38,20.54.88,24.94,1.01,28.23,1.1c1.13.04,3.27.92,3.73,1.77s-.6,3.27-1.37,3.88l-34.22,26.85-25.34,19.55,20.96,72.19c.2.69-.06,2.46-.18,3.06-.16.79-3.18,1.21-3.98.68Z"/><path d="M332.57,625.75c-8.72-5.82-16.5-11.28-25.22-16.65l-51.69,35.48c-.69.47-3.23.63-3.77.02s-.86-2.56-.64-3.4l16.2-61.32c-2.57-2.66-5.1-5.13-7.98-7.3l-42.19-31.77c-1.02-.77-2.19-3.1-1.99-4.19s2.5-2.54,3.75-2.6l16.03-.79,22-1.01c8.86-.41,16.98-.33,26.04-1.59l21.8-62.59c.27-.77,1.36-1.87,1.73-2.29s2.53.73,2.93,1.81l23.38,63.02c4.52.49,8.1.99,12.09,1.13l29.06,1,24.09,1.21c.9,1.27,1.07,3.93-.19,4.93l-50.48,39.97,18.12,63.59c.18.62,0,2.05-.1,2.57-.14.68-2.65.98-3.51.4l-29.48-19.65Z"/><path d="M516.1,828.47l-38.09-25.89-41.58,27.94c-.94.63-3.22.67-3.86.48s-.72-2.36-.54-3.04l13.15-48.15-37.47-31.49c-1.43-1.2-2.66-3.15-3.37-5.02l26.8-1.14c9.34-.4,18.24-.04,27.24-1.77l17.02-50.23c.26-.78,1.26-1.79,1.42-2.07.24-.43,2.19.68,2.53,1.6l18.68,50.7c11.28,1.41,22.46,1.44,33.96,1.97l15.3.7c1.21.06,3.32.55,3.65,1.44s-.66,3.24-1.67,4.03l-39.3,30.73,8.75,31.02,6.05,20.96c-3.95,1.74-5.6-.71-8.64-2.78Z"/><path d="M.22,502.23c.1-15.52-.71-30.09.29-45.29,2.44-37.03,12.97-72.04,29.64-104.99,31.06-61.41,71.63-106.92,136.39-134.61-21.58,17.88-42.04,36.1-60.65,57.41-32.22,36.9-56.73,78.82-74.36,124.62-15.63,40.37-24.37,82.17-28.88,124.76l-2.42-21.91Z"/><path d="M672.84,314.83c-15.61-40.91-37.3-70.76-70.29-100.45-47.22-42.5-106.76-70.25-168.77-81.93,18.11-1.73,34.52.87,52.02,3.85,47,8.71,90.73,28.81,127.04,59.82,28.93,24.7,48.81,57.14,56.58,94.35,1.68,8.05,3.83,15.19,3.42,24.36Z"/><path d="M602.92,693.46c12.63-2.24,24.09-3.89,35.84-7.87,19.09-6.45,36.5-14.55,53.27-25.98,59.18-40.34,100.95-81.15,135.42-145.41-6.01,40.25-31.69,81.15-59.6,110.53-41.25,43.44-103.78,78.8-164.93,68.72Z"/><path d="M693.57,644.29l-25.26-16.66-91.35-63.32-114.05,80.34c-2.21,1.56-5.43,1.46-7.04.03-1.8-1.61-1.85-4.24-1.07-7.1l36.88-135.16-61.81-50.11-48.95-39.04c-.88-1.48-1.76-4.03-1.34-5.26s2.99-3.09,4.47-3.15l25.05-1.1,33.03-1.09,33.98-.94,31.99-.8c5.33-.13,10.41-.34,15.51-1.28l49.95-141.03c.74-2.09,2.51-3.78,4-3.86,1.7-.08,3.91,1.22,4.61,3.21l50.16,141.77,21.73.91,35.05,1.03,34.94,1.01,27.16,1.02c8.21.31,24.62-.88,23.25,6.84-.25,1.39-1.67,3.29-3.32,4.56l-62.87,50.99-45.29,36.25,18.36,64.21,19.84,70.33c-.11,1.83-.33,4.53-1.08,5.55-.88,1.18-3.77,1.46-6.54,1.84Z"/><path d="M261.71,419.51c-32.01,31.1-48.33,57.37-68.42,96.55,2.97-23.44,10.96-44.44,21.87-65.18,15.82-30.07,38.16-55.58,66.94-73.78,28.63-18.1,67.66-27.86,101.12-18.69-46.3,4.27-88.19,28.71-121.51,61.09Z"/><path d="M785.65,435.49c2.23-48.8-.21-85.6-13-132.9-18.34-67.85-57.05-126.64-111.75-170.55-33.91-27.23-72.05-48.55-113.59-62.17-47.56-15.59-93.11-21.68-143.18-19.57-80.38,4.21-152.37,27.27-222.88,65.65,44.63-40.52,96.33-71.11,152.37-91.16C375.61,9.78,418.46,2.18,462.61.43c14.15-.56,27.41-.69,41.5.38l13.13.99c74.27,5.62,143.25,35.76,198.45,85.85,61.19,55.52,97.05,130.37,101.62,213.2,3.04,55.08-9.62,108.74-33.96,157.19.92-7.76,1.95-14.85,2.3-22.55Z"/><path d="M396.02,763.77c-30.22-12.59-51.3-39.94-60.28-70.4-2.78-9.42-5.43-18.5-5.57-28.57,14.47,35.95,38.61,70.53,65.85,98.97Z"/><path d="M576.04,795.28l12.05-1.58c25.24-3.32,48.83-10.61,72.58-20.39,106.29-43.77,187.83-130.82,226.74-239.03,33.76-93.89,28.46-195.02-5.75-287.86-7.16-20.15-16.15-38.08-25.33-58.26,63.28,75.69,104.2,156.25,110.96,256.68,5.43,80.7-17.09,158.2-65.68,222.56-36.74,48.67-86.03,86.24-142.44,109.47-56.86,23.41-123.67,30.38-183.13,18.42Z"/><path d="M392.29,984.11c-74.16-8.21-154.43-47.93-210.83-95.44-57.82-48.71-101.3-115.2-117.59-189.41-7.25-33.03-10.89-67.5-8.95-101.37,4.62-80.59,30.97-155.39,81.36-218.71,20.47-25.72,44.17-48.38,74.03-64.69-38.06,43.9-62.11,78.83-79.64,134.04-6.27,19.74-10.94,38.83-13.64,59.39-1.39,10.61-3.12,20.8-3.44,31.51-.56,18.83-1.43,37.18-.06,56.13,8.21,113.83,57.74,221.75,140.65,300.45,39.95,37.92,87.52,66.53,138.11,88.11Z"/><path d="M885.27,771.01c-70.51,121.37-187.36,199.34-331.22,192.14-72.13-3.61-147.44-31.31-206.57-72.39-81.81-56.83-134.93-141.05-140.57-241.55-.72-2.94-.92-5.36-.21-8.44,13.28,66.75,45.59,126.93,95.72,173.95,77.84,73.01,188.59,107.77,293.98,102.79,95.35-4.5,188.29-48.09,256.58-113.61l32.3-32.9Z"/></svg>